<svg xmlns="http://www.w3.org/2000/svg" viewBox="0 0 24 24" fill="#000000"><path d="M12 0C5.373 0 0 5.373 0 12s5.373 12 12 12 12-5.373 12-12S18.627 0 12 0zm0 1.846c5.595 0 10.154 4.559 10.154 10.154S17.595 22.154 12 22.154 1.846 17.595 1.846 12 6.405 1.846 12 1.846zM12 3.23A8.77 8.77 0 003.23 12 8.77 8.77 0 0012 20.77 8.77 8.77 0 0020.77 12 8.77 8.77 0 0012 3.23zm0 1.384a7.386 7.386 0 015.834 2.853L12 14.307l-5.834-6.84A7.386 7.386 0 0112 4.614zm-6.892 3.77L11.3 19.632a7.386 7.386 0 01-6.192-11.25zm13.784 0a7.386 7.386 0 01-6.192 11.25z"/></svg>